HIERARCHY
ROOT Hips
{
	OFFSET 0.00000 0.00000 0.00000
	CHANNELS 6 Xposition Yposition Zposition Zrotation Yrotation Xrotation 
	JOINT LHipJoint
	{
		OFFSET 0 0 0
		CHANNELS 3 Zrotation Yrotation Xrotation
		JOINT LeftHip
		{
			OFFSET 1.36337 -1.57426 1.11036
			CHANNELS 3 Zrotation Yrotation Xrotation
			JOINT LeftKnee
			{
				OFFSET 2.38468 -6.55187 0.00000
				CHANNELS 3 Zrotation Yrotation Xrotation
				JOINT LeftAnkle
				{
					OFFSET 2.37166 -6.51609 0.00000
					CHANNELS 3 Zrotation Yrotation Xrotation
					JOINT LeftToe
					{
						OFFSET 0.29078 -0.79891 2.01393
						CHANNELS 3 Zrotation Yrotation Xrotation
						End Site
						{
							OFFSET 0.00000 -0.00000 1.07924
						}
					}
				}
			}
		}
	}
	JOINT RHipJoint
	{
		OFFSET 0 0 0
		CHANNELS 3 Zrotation Yrotation Xrotation
		JOINT RightHip
		{
			OFFSET -1.36349 -1.57426 1.11036
			CHANNELS 3 Zrotation Yrotation Xrotation
			JOINT RightKnee
			{
				OFFSET -2.29562 -6.30717 0.00000
				CHANNELS 3 Zrotation Yrotation Xrotation
				JOINT RightAnkle
				{
					OFFSET -2.40985 -6.62100 0.00000
					CHANNELS 3 Zrotation Yrotation Xrotation
					JOINT RightToe
					{
						OFFSET -0.23197 -0.63733 1.92232
						CHANNELS 3 Zrotation Yrotation Xrotation
						End Site
						{
							OFFSET -0.00000 -0.00000 1.01562
						}
					}
				}
			}
		}
	}
	JOINT lowerback
	{
		OFFSET 0 0 0
		CHANNELS 3 Zrotation Yrotation Xrotation
		JOINT Chest
		{
			OFFSET -0.08565 2.03602 -0.24562
			CHANNELS 3 Zrotation Yrotation Xrotation
			JOINT Chest2
			{
				OFFSET -0.00036 2.05693 0.00216
				CHANNELS 3 Zrotation Yrotation Xrotation
				JOINT lowerneck
				{
					OFFSET 0 0 0
					CHANNELS 3 Zrotation Yrotation Xrotation
					JOINT Neck
					{
						OFFSET -0.03664 1.69515 0.31789
						CHANNELS 3 Zrotation Yrotation Xrotation
						JOINT Head
						{
							OFFSET 0.00932 1.70181 -0.46013
							CHANNELS 3 Zrotation Yrotation Xrotation
							End Site
							{
								OFFSET 0.01243 1.77620 -0.19377
							}
						}
					}
				}
				JOINT LeftCollar
				{
					OFFSET 0 0 0
					CHANNELS 3 Zrotation Yrotation Xrotation
					JOINT LeftShoulder
					{
						OFFSET 3.74344 0.81315 -0.36647
CHANNELS 3 Zrotation Xrotation Yrotation
						JOINT LeftElbow
						{
OFFSET 0 -4.971850 -0.000000
CHANNELS 3 Zrotation Xrotation Yrotation
							JOINT LeftWrist
							{
OFFSET 0 -3.358110 0.000000
CHANNELS 3 Zrotation Xrotation Yrotation
								JOINT lhand
								{
									OFFSET 0 0 0
CHANNELS 3 Zrotation Xrotation Yrotation
									JOINT LFingers
									{
OFFSET 0 -0.622780 0.000000
CHANNELS 3 Zrotation Xrotation Yrotation
										End Site
										{
OFFSET 0 -0.502100 0.000000
										}
									}
								}
								JOINT LThumb
								{
OFFSET 0 0.000000 0.000000
CHANNELS 3 Zrotation Xrotation Yrotation
									End Site
									{
OFFSET 0 -0.509760 0.509760
									}
								}
							}
						}
					}
				}
				JOINT RightCollar
				{
					OFFSET 0 0 0
					CHANNELS 3 Zrotation Yrotation Xrotation
					JOINT RightShoulder
					{
						OFFSET -3.75385 0.50666 -0.06525
CHANNELS 3 Zrotation Xrotation Yrotation
						JOINT RightElbow
						{
OFFSET 0 -4.964930 -0.000000
CHANNELS 3 Zrotation Xrotation Yrotation
							JOINT RightWrist
							{
OFFSET 0 -3.349290 0.000000
CHANNELS 3 Zrotation Xrotation Yrotation
								JOINT rhand
								{
									OFFSET 0 0 0
CHANNELS 3 Zrotation Xrotation Yrotation
									JOINT RFingers
									{
OFFSET 0 -0.638040 0.000000
CHANNELS 3 Zrotation Xrotation Yrotation
										End Site
										{
OFFSET 0 -0.514410 0.000000
										}
									}
								}
								JOINT RThumb
								{
OFFSET 0 0.000000 0.000000
CHANNELS 3 Zrotation Xrotation Yrotation
									End Site
									{
OFFSET 0 -0.522260 0.522260
									}
								}
							}
						}
					}
				}
			}
		}
	}
}
MOTION
Frames: 12
Frame Time: 0.008333333333333333
-13.189728 13.147330 2.335271 176.325691 35.916618 -164.395499 0.000000 0.000000 0.000000 6.538609 -20.689901 -78.097477 14.751690 19.326352 74.487531 -0.449593 -16.186270 -5.938690 0.286569 -3.440533 -9.508010 0.000000 0.000000 0.000000 15.197421 -43.336945 -55.453907 -20.879369 -19.981415 92.571908 -2.994413 0.798613 -32.595450 -3.804896 11.896078 -35.365410 -2.313003 4.905322 21.450418 -10.728664 6.413987 3.457286 -12.552669 3.633676 -7.053431 23.887054 21.123937 -1.583272 -19.577033 34.037856 15.791217 -4.616004 15.962602 13.027339 0.000000 0.000000 0.000000 37.425366 -26.027519 -73.377728 84.414408 -59.881535 55.164674 24.540271 -16.888037 17.165647 0.000000 0.000000 0.000000 -7.125000 0.000000 0.000000 -2.216805 11.234986 -1.744177 0.000000 0.000000 0.000000 -121.446741 -36.838992 -47.302117 -145.536606 -44.425122 -105.563517 -9.427844 -64.473761 16.470708 0.000000 0.000000 0.000000 7.125000 0.000000 0.000000 17.198689 45.925046 -0.404768
-13.193423 13.130152 2.326492 176.185808 36.108599 -164.408524 0.000000 0.000000 0.000000 6.469150 -20.647279 -78.287776 14.821715 19.344508 74.698999 -0.426652 -16.111205 -6.184633 0.325277 -3.664617 -10.135189 0.000000 0.000000 0.000000 14.985184 -43.389659 -55.615573 -20.944410 -19.978554 92.762291 -2.998144 0.987865 -32.563546 -3.827652 11.927471 -35.475760 -2.368899 4.922608 21.304876 -10.752874 6.429119 3.433719 -12.531494 3.642911 -7.002953 23.785504 21.099633 -1.309284 -19.650559 33.986303 15.534603 -4.682572 15.964296 12.864278 0.000000 0.000000 0.000000 37.343962 -25.982004 -73.364505 84.280951 -59.876031 55.049243 24.459524 -16.742552 16.893489 0.000000 0.000000 0.000000 -7.125000 0.000000 0.000000 -2.247720 11.540088 -1.754417 0.000000 0.000000 0.000000 -121.410321 -36.740129 -47.297717 -145.428010 -44.504050 -105.487433 -9.288918 -64.536575 16.411166 0.000000 0.000000 0.000000 7.125000 0.000000 0.000000 17.302358 45.850615 -0.374490
-13.196154 13.121960 2.321419 175.978973 36.270056 -164.500285 0.000000 0.000000 0.000000 6.295983 -20.604089 -78.369552 14.870266 19.357002 74.845525 -0.416108 -16.136452 -6.364685 0.361766 -3.863141 -10.692001 0.000000 0.000000 0.000000 14.691325 -43.337698 -55.653690 -20.990116 -19.976473 92.895981 -3.006699 1.198041 -32.553314 -3.819720 11.916613 -35.437582 -2.552869 4.934674 21.191236 -10.760648 6.412974 3.432505 -12.409959 3.640978 -6.965527 23.803026 21.093867 -0.985549 -19.801069 33.980820 15.246229 -4.774295 15.989551 12.731979 0.000000 0.000000 0.000000 37.304234 -25.894315 -73.284348 84.206453 -59.872755 54.984745 24.401521 -16.670182 16.775714 0.000000 0.000000 0.000000 -7.125000 0.000000 0.000000 -2.276230 11.675112 -1.770077 0.000000 0.000000 0.000000 -121.345779 -36.733819 -47.323210 -145.321195 -44.581396 -105.412558 -9.107524 -64.747494 16.469126 0.000000 0.000000 0.000000 7.125000 0.000000 0.000000 17.485894 45.883962 -0.393544
-13.199493 13.123215 2.317627 175.905454 36.374691 -164.584860 0.000000 0.000000 0.000000 6.175235 -20.555771 -78.305091 14.892289 19.362692 74.912087 -0.411468 -16.070983 -6.356641 0.333436 -3.709556 -10.261148 0.000000 0.000000 0.000000 14.452926 -43.185065 -55.487254 -20.988165 -19.976579 92.890374 -2.985701 1.298698 -32.409389 -3.780907 11.863061 -35.249184 -2.612960 4.927025 21.190261 -10.731132 6.383259 3.423388 -12.332580 3.623800 -6.990955 23.975559 21.065067 -0.835374 -19.980180 34.012844 15.202658 -4.853202 16.015572 12.771826 0.000000 0.000000 0.000000 37.192117 -25.775520 -73.280361 84.121698 -59.869043 54.911428 24.578546 -16.779214 16.593242 0.000000 0.000000 0.000000 -7.125000 0.000000 0.000000 -2.143963 11.846986 -1.659540 0.000000 0.000000 0.000000 -121.207606 -36.764542 -47.262203 -145.254565 -44.629484 -105.365814 -9.501215 -64.779381 16.787877 0.000000 0.000000 0.000000 7.125000 0.000000 0.000000 17.245446 46.239554 -0.542879
-13.203556 13.120697 2.313191 175.975067 36.475510 -164.598117 0.000000 0.000000 0.000000 6.183211 -20.469767 -78.250796 14.907676 19.366591 74.958592 -0.405843 -15.945053 -6.292825 0.293155 -3.481137 -9.621337 0.000000 0.000000 0.000000 14.299047 -43.000192 -55.287034 -20.963786 -19.977671 92.819049 -2.947984 1.341203 -32.187447 -3.702420 11.753402 -34.865332 -2.529689 4.907809 21.219338 -10.678948 6.359549 3.399758 -12.320292 3.601961 -7.035532 24.150003 21.035780 -0.734816 -20.069431 34.065893 15.294949 -4.891121 16.048484 12.857345 0.000000 0.000000 0.000000 37.054483 -25.624658 -73.255624 84.101171 -59.868082 54.893737 24.698547 -16.660263 16.212451 0.000000 0.000000 0.000000 -7.125000 0.000000 0.000000 -2.033267 12.241464 -1.556945 0.000000 0.000000 0.000000 -121.172088 -36.757771 -47.293401 -145.102433 -44.738838 -105.258782 -10.241104 -64.710970 17.434778 0.000000 0.000000 0.000000 7.125000 0.000000 0.000000 16.809533 46.957991 -0.834174
-13.205452 13.128434 2.309892 176.107972 36.622353 -164.586381 0.000000 0.000000 0.000000 6.216714 -20.333239 -78.099206 14.904362 19.365741 74.948395 -0.396873 -15.901277 -6.371693 0.319698 -3.634124 -10.049436 0.000000 0.000000 0.000000 14.257956 -42.724174 -55.086571 -20.921007 -19.979640 92.693729 -2.927823 1.301337 -32.085150 -3.661053 11.695088 -34.661692 -2.447909 4.907149 21.212524 -10.597765 6.369110 3.418399 -12.268875 3.600375 -7.011639 24.173132 21.033284 -0.822574 -19.954890 34.095139 15.533468 -4.835429 16.055589 12.950647 0.000000 0.000000 0.000000 36.957687 -25.524918 -73.166188 84.267013 -59.875456 55.037155 24.904248 -16.413735 15.550401 0.000000 0.000000 0.000000 -7.125000 0.000000 0.000000 -1.843125 12.930391 -1.384745 0.000000 0.000000 0.000000 -121.232298 -36.699940 -47.430805 -144.850732 -44.918457 -105.081283 -10.622256 -64.756062 17.739005 0.000000 0.000000 0.000000 7.125000 0.000000 0.000000 16.573541 47.302258 -0.966955
-13.207237 13.137414 2.304479 176.192337 36.815404 -164.663144 0.000000 0.000000 0.000000 6.133284 -20.151425 -77.853587 14.903682 19.365548 74.946534 -0.392471 -15.931969 -6.469500 0.336938 -3.729949 -10.318066 0.000000 0.000000 0.000000 14.127291 -42.455311 -54.833102 -20.892850 -19.980895 92.611433 -2.920355 1.176035 -32.076791 -3.708339 11.761858 -34.894738 -2.446701 4.899647 21.250204 -10.510993 6.359643 3.481854 -12.160601 3.595602 -6.973740 24.187224 21.027395 -0.900002 -19.995723 34.081284 15.590365 -4.843445 16.039806 12.997661 0.000000 0.000000 0.000000 36.840945 -25.373704 -73.020347 84.446591 -59.883166 55.192413 25.363285 -16.499724 15.052496 0.000000 0.000000 0.000000 -7.125000 0.000000 0.000000 -1.495449 13.410010 -1.108225 0.000000 0.000000 0.000000 -121.287217 -36.683420 -47.509538 -144.636383 -45.070018 -104.929761 -10.578196 -64.813814 17.422889 0.000000 0.000000 0.000000 7.125000 0.000000 0.000000 16.498047 46.990515 -0.832255
-13.214849 13.141228 2.297844 176.058883 37.095121 -164.785302 0.000000 0.000000 0.000000 5.866252 -19.952060 -77.733663 14.909907 19.367162 74.965090 -0.380259 -16.003597 -6.719637 0.366107 -3.884792 -10.753114 0.000000 0.000000 0.000000 13.835121 -42.163439 -54.770069 -20.900738 -19.980564 92.634411 -2.938992 1.103216 -32.201141 -3.731138 11.793837 -35.006421 -2.560968 4.899947 21.265755 -10.487348 6.332233 3.498406 -12.058788 3.583310 -6.983279 24.213104 20.999465 -0.772306 -20.196479 34.051406 15.426663 -4.934718 16.033339 12.958492 0.000000 0.000000 0.000000 36.690543 -25.196661 -72.810434 84.361404 -59.879497 55.118778 25.363163 -16.684158 15.371773 0.000000 0.000000 0.000000 -7.125000 0.000000 0.000000 -1.520905 13.062542 -1.138841 0.000000 0.000000 0.000000 -121.339163 -36.707237 -47.517771 -144.550569 -45.130366 -104.869020 -10.424864 -65.080428 17.077090 0.000000 0.000000 0.000000 7.125000 0.000000 0.000000 16.512993 46.635873 -0.684871
-13.229462 13.140930 2.289976 175.830406 37.418582 -164.849880 0.000000 0.000000 0.000000 5.599332 -19.803530 -77.792529 14.937459 19.374115 75.048266 -0.358215 -16.042624 -7.064447 0.430086 -4.208152 -11.663157 0.000000 0.000000 0.000000 13.558807 -41.837227 -54.950364 -20.947013 -19.978474 92.769755 -2.964100 0.998229 -32.370907 -3.707114 11.760112 -34.888632 -2.664969 4.898327 21.225313 -10.505293 6.299913 3.467645 -12.008660 3.565887 -7.010530 24.178792 20.979012 -0.732224 -20.235075 34.013189 15.399712 -4.960637 16.019393 12.935736 0.000000 0.000000 0.000000 36.574080 -25.051878 -72.600756 84.140834 -59.869901 54.928052 24.830115 -16.660926 15.992720 0.000000 0.000000 0.000000 -7.125000 0.000000 0.000000 -1.927754 12.461090 -1.467474 0.000000 0.000000 0.000000 -121.335207 -36.763817 -47.521684 -144.514195 -45.155871 -104.843227 -10.323981 -65.456576 17.060912 0.000000 0.000000 0.000000 7.125000 0.000000 0.000000 16.598825 46.607299 -0.676637
-13.254390 13.132444 2.279131 175.756633 37.738451 -164.696816 0.000000 0.000000 0.000000 5.574402 -19.704314 -78.103861 14.992877 19.387946 75.215202 -0.337070 -15.922282 -7.225094 0.449616 -4.301470 -11.926368 0.000000 0.000000 0.000000 13.523273 -41.458452 -55.414063 -21.030673 -19.974478 93.014726 -2.976981 0.756962 -32.510457 -3.705947 11.758434 -34.882811 -2.538205 4.849802 21.053069 -10.509305 6.257003 3.430539 -12.053179 3.537236 -6.955744 24.082976 20.962968 -0.915442 -20.121993 33.948174 15.573988 -4.913192 15.975314 12.977857 0.000000 0.000000 0.000000 36.534071 -24.896150 -72.430634 84.099163 -59.868005 54.891995 24.527680 -16.432347 16.188490 0.000000 0.000000 0.000000 -7.125000 0.000000 0.000000 -2.145162 12.290938 -1.640490 0.000000 0.000000 0.000000 -121.250046 -36.852059 -47.481305 -144.367783 -45.258193 -104.739249 -10.400908 -65.827359 16.785462 0.000000 0.000000 0.000000 7.125000 0.000000 0.000000 16.432237 46.350375 -0.563807
-13.288514 13.110954 2.263260 175.797731 38.163117 -164.412262 0.000000 0.000000 0.000000 5.691719 -19.548044 -78.586697 15.078240 19.409028 75.472357 -0.315881 -15.662082 -7.243271 0.418259 -4.150501 -11.500504 0.000000 0.000000 0.000000 13.521760 -41.013208 -55.993509 -21.137364 -19.968942 93.327140 -2.972151 0.598669 -32.528745 -3.627733 11.647379 -34.496258 -2.197327 4.787839 20.819993 -10.549306 6.242820 3.384177 -12.265177 3.519472 -6.847560 23.944493 20.915170 -1.261534 -19.902390 33.788611 15.853181 -4.836963 15.879658 13.035336 0.000000 0.000000 0.000000 36.840469 -24.747472 -72.444312 84.565154 -59.887574 55.295070 24.803538 -16.545389 16.151559 0.000000 0.000000 0.000000 -7.125000 0.000000 0.000000 -1.958304 12.292601 -1.497394 0.000000 0.000000 0.000000 -120.945462 -36.948247 -47.316322 -144.138111 -45.417770 -104.575914 -10.703305 -66.124688 16.249711 0.000000 0.000000 0.000000 7.125000 0.000000 0.000000 15.973488 45.868517 -0.352140
-13.317937 13.103033 2.245294 175.929327 38.719680 -164.274938 0.000000 0.000000 0.000000 5.719095 -19.256964 -78.686029 15.153300 19.427199 75.698092 -0.288751 -15.440602 -7.386395 0.399781 -4.059554 -11.244223 0.000000 0.000000 0.000000 13.357929 -40.458614 -56.119402 -21.172077 -19.966987 93.428816 -2.953142 0.393963 -32.482282 -3.581146 11.581014 -34.265655 -1.880232 4.724266 20.728753 -10.561523 6.219332 3.386975 -12.444959 3.499336 -6.767121 23.802775 20.845032 -1.712246 -19.608768 33.558216 16.205276 -4.744878 15.748198 13.107218 0.000000 0.000000 0.000000 37.229615 -24.468754 -72.488845 85.369281 -59.918326 55.990797 25.447493 -17.044701 15.819112 0.000000 0.000000 0.000000 -7.125000 0.000000 0.000000 -1.500889 12.564302 -1.140144 0.000000 0.000000 0.000000 -120.605557 -37.184650 -47.255080 -143.952586 -45.545684 -104.443647 -11.152239 -66.144477 16.251205 0.000000 0.000000 0.000000 7.125000 0.000000 0.000000 15.568050 45.926068 -0.363867
